name Walk2.mot
datacolumns 19
datarows 15
range 1.72800000 1.74200000
endheader

                time	   L_ground_force_vx	   L_ground_force_vy	   L_ground_force_vz	   L_ground_force_px	   L_ground_force_py	   L_ground_force_pz	   R_ground_force_vx	   R_ground_force_vy	   R_ground_force_vz	   R_ground_force_px	   R_ground_force_py	   R_ground_force_pz	   L_ground_torque_x	   L_ground_torque_y	   L_ground_torque_z	   R_ground_torque_x	   R_ground_torque_y	   R_ground_torque_z	
          1.72800000	          0.00000000	          0.00000000	          0.00000000	          0.00000000	          0.00000000	          0.00000000	         24.77833463	        694.55929371	        -17.39302405	         -0.12870201	          0.00000000	          0.32784814	          0.00000000	          0.00000000	          0.00000000	          0.00000000	          3.93111260	          0.00000000	
          1.72900000	          0.00000000	          0.00000000	          0.00000000	          0.00000000	          0.00000000	          0.00000000	         25.17838252	        696.51991116	        -17.49058954	         -0.12801756	          0.00000000	          0.32791426	          0.00000000	          0.00000000	          0.00000000	          0.00000000	          3.93760559	          0.00000000	
          1.73000000	          0.00000000	          0.00000000	          0.00000000	          0.00000000	          0.00000000	          0.00000000	         25.60966011	        698.47552815	        -17.57844115	         -0.12734436	          0.00000000	          0.32794055	          0.00000000	          0.00000000	          0.00000000	          0.00000000	          3.94144642	          0.00000000	
          1.73100000	          0.00000000	          0.00000000	          0.00000000	          0.00000000	          0.00000000	          0.00000000	         26.06960653	        700.42613117	        -17.67564849	         -0.12668780	          0.00000000	          0.32796051	          0.00000000	          0.00000000	          0.00000000	          0.00000000	          3.93262458	          0.00000000	
          1.73200000	          0.00000000	          0.00000000	          0.00000000	          0.00000000	          0.00000000	          0.00000000	         26.54150106	        702.38188470	        -17.80444416	         -0.12606384	          0.00000000	          0.32801039	          0.00000000	          0.00000000	          0.00000000	          0.00000000	          3.90515877	          0.00000000	
          1.73300000	          0.00000000	          0.00000000	          0.00000000	          0.00000000	          0.00000000	          0.00000000	         27.00322332	        704.36332018	        -17.97425881	         -0.12548327	          0.00000000	          0.32810039	          0.00000000	          0.00000000	          0.00000000	          0.00000000	          3.85951702	          0.00000000	
          1.73400000	          0.00000000	          0.00000000	          0.00000000	          0.00000000	          0.00000000	          0.00000000	         27.43936943	        706.36484446	        -18.17297559	         -0.12493395	          0.00000000	          0.32821408	          0.00000000	          0.00000000	          0.00000000	          0.00000000	          3.80294010	          0.00000000	
          1.73500000	          0.00000000	          0.00000000	          0.00000000	          0.00000000	          0.00000000	          0.00000000	         27.84867626	        708.34042703	        -18.38021001	         -0.12439356	          0.00000000	          0.32832388	          0.00000000	          0.00000000	          0.00000000	          0.00000000	          3.74382561	          0.00000000	
          1.73600000	          0.00000000	          0.00000000	          0.00000000	          0.00000000	          0.00000000	          0.00000000	         28.24246894	        710.23113986	        -18.58743461	         -0.12384871	          0.00000000	          0.32841838	          0.00000000	          0.00000000	          0.00000000	          0.00000000	          3.68316043	          0.00000000	
          1.73700000	          0.00000000	          0.00000000	          0.00000000	          0.00000000	          0.00000000	          0.00000000	         28.63675789	        712.00450727	        -18.79761523	         -0.12329701	          0.00000000	          0.32850064	          0.00000000	          0.00000000	          0.00000000	          0.00000000	          3.61648318	          0.00000000	
          1.73800000	          0.00000000	          0.00000000	          0.00000000	          0.00000000	          0.00000000	          0.00000000	         29.04167210	        713.68470381	        -19.01307100	         -0.12274577	          0.00000000	          0.32855519	          0.00000000	          0.00000000	          0.00000000	          0.00000000	          3.54256813	          0.00000000	
          1.73900000	          0.00000000	          0.00000000	          0.00000000	          0.00000000	          0.00000000	          0.00000000	         29.45449692	        715.33047704	        -19.23184024	         -0.12220703	          0.00000000	          0.32855461	          0.00000000	          0.00000000	          0.00000000	          0.00000000	          3.46618134	          0.00000000	
          1.74000000	          0.00000000	          0.00000000	          0.00000000	          0.00000000	          0.00000000	          0.00000000	         29.86103764	        716.96980639	        -19.45201549	         -0.12168013	          0.00000000	          0.32850163	          0.00000000	          0.00000000	          0.00000000	          0.00000000	          3.39699724	          0.00000000	
          1.74100000	          0.00000000	          0.00000000	          0.00000000	          0.00000000	          0.00000000	          0.00000000	         30.24204042	        718.58605014	        -19.67459207	         -0.12114574	          0.00000000	          0.32843349	          0.00000000	          0.00000000	          0.00000000	          0.00000000	          3.34640385	          0.00000000	
          1.74200000	          0.00000000	          0.00000000	          0.00000000	          0.00000000	          0.00000000	          0.00000000	         30.58479450	        720.16494208	        -19.90132748	         -0.12058629	          0.00000000	          0.32838631	          0.00000000	          0.00000000	          0.00000000	          0.00000000	          3.31970259	          0.00000000	
